<?xml version="1.0" standalone="no"?>
<!DOCTYPE svg PUBLIC "-//W3C//DTD SVG 20010904//EN"
 "http://www.w3.org/TR/2001/REC-SVG-20010904/DTD/svg10.dtd">
<svg version="1.0" xmlns="http://www.w3.org/2000/svg"
 width="512.000000pt" height="512.000000pt" viewBox="0 0 512.000000 512.000000"
 preserveAspectRatio="xMidYMid meet">
<metadata>
Created by potrace 1.11, written by Peter Selinger 2001-2013
</metadata>
<g transform="translate(0.000000,512.000000) scale(0.100000,-0.100000)"
fill="#000000" stroke="none">
<path d="M2379 5116 c-2 -2 -35 -6 -74 -10 -103 -9 -247 -33 -360 -62 -117
-29 -286 -83 -299 -95 -6 -5 -16 -9 -24 -9 -22 0 -250 -110 -356 -173 -702
-411 -1168 -1135 -1253 -1947 -15 -137 -7 -535 12 -615 2 -11 6 -36 9 -55 3
-29 29 -156 42 -210 15 -64 36 -138 44 -155 5 -11 12 -31 16 -45 23 -85 143
-353 200 -447 10 -17 32 -53 48 -80 25 -42 129 -192 163 -233 146 -182 313
-344 483 -471 227 -168 460 -289 729 -379 174 -58 346 -95 541 -117 86 -10
427 -10 515 0 156 17 131 13 295 47 105 21 361 102 449 141 295 133 550 300
760 502 457 438 726 989 790 1617 9 88 7 487 -3 529 -3 14 -8 46 -11 73 -3 27
-10 72 -16 101 -6 28 -15 70 -19 93 -5 22 -20 82 -34 132 -191 677 -654 1249
-1278 1577 -64 34 -140 72 -170 84 -29 12 -62 26 -73 31 -118 53 -401 128
-585 155 -19 3 -53 7 -75 11 -46 6 -460 16 -466 10z m436 -275 c44 -7 94 -14
111 -16 17 -2 41 -8 54 -13 22 -8 22 -9 -11 -14 -19 -4 -78 -26 -130 -51 -84
-39 -130 -58 -237 -98 -48 -17 -126 -108 -143 -166 -20 -70 -15 -118 18 -171
l28 -47 -36 -33 -36 -32 -48 57 c-26 32 -71 107 -99 166 l-52 108 -44 -38
c-117 -101 -129 -114 -128 -144 1 -16 -1 -32 -4 -34 -3 -3 -24 2 -48 10 -23 8
-46 15 -49 15 -4 0 -17 -21 -29 -47 -11 -27 -34 -76 -51 -110 l-30 -62 64 -88
c81 -114 89 -121 115 -98 11 10 35 20 53 23 71 9 72 9 73 -25 0 -27 -4 -32
-30 -37 -63 -12 -72 -14 -116 -26 -54 -15 -70 -18 -90 -19 -38 -3 -42 -15 -27
-75 10 -37 13 -78 9 -119 -11 -119 -7 -176 17 -207 l21 -30 -50 -71 c-48 -67
-76 -119 -64 -119 11 0 -24 -28 -97 -77 -108 -73 -157 -137 -195 -253 -14 -45
-15 -53 -21 -210 l-5 -155 30 -66 c62 -137 182 -291 281 -359 31 -21 70 -51
86 -65 43 -38 80 -56 127 -59 47 -4 248 47 296 75 l34 19 39 -34 c43 -37 70
-45 129 -41 35 3 38 1 44 -27 3 -17 6 -53 6 -80 0 -66 18 -105 74 -156 26 -24
47 -53 47 -65 3 -49 8 -75 29 -126 13 -35 17 -57 11 -65 -21 -25 -62 -170 -63
-225 -2 -66 24 -129 78 -188 18 -21 34 -45 34 -54 0 -10 13 -43 30 -74 51 -98
61 -141 63 -267 0 -65 3 -118 7 -118 3 0 46 7 95 14 50 8 107 17 128 20 96 15
115 19 159 36 61 23 167 82 196 110 12 12 34 39 47 60 14 22 51 58 82 82 32
24 67 51 77 61 11 9 23 17 27 17 4 0 6 9 4 20 -2 11 -5 47 -6 79 -2 53 1 62
38 112 38 51 93 108 93 97 0 -3 -8 -20 -17 -39 -9 -19 -19 -59 -21 -90 -7 -90
32 -144 113 -154 20 -3 41 -8 46 -10 16 -11 89 35 147 93 62 60 95 114 111
179 5 21 16 65 25 98 33 123 31 194 -11 364 l-39 153 -84 -158 c-109 -203
-152 -247 -164 -167 -3 21 -8 67 -11 103 -6 60 -4 69 23 111 16 25 33 56 37
67 3 12 27 44 53 70 55 57 78 84 112 132 13 19 27 37 30 40 24 22 90 135 103
175 15 50 47 186 47 203 0 6 -19 6 -47 1 -25 -5 -48 -7 -50 -5 -2 2 22 18 54
36 76 43 226 154 258 192 14 16 25 38 25 48 0 17 3 17 25 6 14 -7 35 -25 47
-41 23 -30 110 -247 134 -335 8 -30 21 -64 28 -75 15 -23 10 -72 -24 -220
-188 -822 -844 -1493 -1658 -1695 -228 -56 -309 -65 -582 -64 -193 1 -319 12
-435 38 -359 81 -665 221 -929 424 l-59 45 48 41 48 42 -23 70 -23 71 37 115
c38 123 42 160 25 221 -11 42 -63 107 -85 107 -8 0 -34 20 -59 45 -73 72 -111
97 -142 94 -15 -1 -47 3 -71 10 -40 11 -45 16 -86 101 -75 151 -178 247 -351
330 -22 10 -57 34 -78 52 -36 31 -39 38 -53 128 -7 52 -17 154 -20 225 -6 108
-4 141 11 190 9 32 18 91 20 129 7 183 25 228 202 510 71 112 92 158 87 189
-1 11 17 31 54 57 82 57 87 62 105 97 26 50 28 121 5 187 -20 57 -20 59 -2 69
36 20 64 56 64 82 0 65 54 127 97 111 7 -3 21 4 31 15 15 16 26 18 58 13 55
-9 51 -10 137 26 52 21 84 41 94 59 9 14 49 58 90 97 40 39 73 78 73 85 0 8
-13 23 -29 34 -38 25 -32 31 8 10 38 -19 44 -16 70 38 12 24 41 67 66 96 25
30 59 73 76 97 30 44 69 59 84 33 8 -11 43 8 85 46 29 27 109 53 270 88 108
24 138 29 280 46 84 10 405 5 495 -8z m-152 -1172 c12 -7 36 -24 54 -40 l32
-27 -67 -20 c-93 -28 -91 -28 -144 -13 -26 7 -59 11 -73 9 -35 -7 -16 15 28
33 18 6 46 22 63 35 16 12 41 24 55 27 13 2 25 5 27 6 2 0 13 -4 25 -10z m636
-194 c6 -19 37 -69 67 -110 29 -42 54 -78 54 -80 0 -4 -101 22 -105 27 -1 2
-15 45 -32 95 -27 86 -28 99 -3 102 4 1 12 -15 19 -34z m-211 -139 c-20 -16
-35 -18 -126 -13 -96 5 -132 16 -132 39 0 5 8 5 18 -1 37 -20 133 18 174 67
l23 29 33 -51 33 -51 -23 -19z"/>
</g>
</svg>
